<svg xmlns="http://www.w3.org/2000/svg" viewBox="0 0 900 900" role="img" aria-labelledby="t"><title id="t">Detalle de estampa personalizada</title><rect width="900" height="900" rx="40" fill="#27332e"/><circle cx="450" cy="450" r="315" fill="#f5e8da"/><circle cx="450" cy="450" r="260" fill="#c76543"/><path d="M314 450c0-83 61-143 136-143 53 0 94 25 118 66-78-28-144 28-144 105 0 55 34 98 82 117-19 10-38 14-56 14-75 0-136-70-136-159Z" fill="#f9efe3"/><path d="M420 432c54-71 127-68 161 5-57-19-99 19-109 78-33-9-52-37-52-83Z" fill="#27332e" opacity=".9"/><text x="450" y="755" text-anchor="middle" font-family="Arial,sans-serif" font-size="24" font-weight="700" fill="#f5e8da" letter-spacing="5">DETALLE DTF UV</text></svg>
